<?xml version="1.0" standalone="no"?>
<!DOCTYPE svg PUBLIC "-//W3C//DTD SVG 20010904//EN"
 "http://www.w3.org/TR/2001/REC-SVG-20010904/DTD/svg10.dtd">
<svg version="1.0" xmlns="http://www.w3.org/2000/svg"
 width="700.000000pt" height="700.000000pt" viewBox="0 0 700.000000 700.000000"
 preserveAspectRatio="xMidYMid meet">
<metadata>
Created by potrace 1.14, written by Peter Selinger 2001-2017
</metadata>
<g transform="translate(0.000000,700.000000) scale(0.100000,-0.100000)"
fill="#000000" stroke="none">
<path d="M630 6985 c-314 -63 -555 -306 -616 -622 -21 -111 -21 -5614 0 -5725
21 -107 59 -200 120 -293 117 -174 293 -290 504 -331 110 -21 5614 -21 5724 0
323 62 562 301 624 624 21 110 21 5614 0 5724 -62 323 -301 562 -624 624 -105
20 -5631 19 -5732 -1z m2548 -1834 c51 -26 97 -76 124 -136 23 -49 23 -57 26
-452 l3 -402 47 36 c56 43 168 97 249 119 87 24 282 29 370 11 300 -64 521
-284 631 -628 113 -352 68 -736 -118 -1017 -174 -263 -437 -405 -725 -389
-166 9 -291 62 -398 169 -32 32 -60 58 -61 58 -2 0 -8 -17 -14 -38 -15 -49
-74 -117 -122 -142 -58 -30 -136 -35 -206 -15 -46 13 -69 28 -105 64 -85 88
-79 -11 -79 1351 0 1369 -5 1275 80 1361 59 59 120 81 203 74 31 -3 74 -13 95
-24z m-1478 -845 c86 -29 195 -100 245 -159 19 -22 36 -39 38 -36 2 2 9 23 15
45 14 49 72 112 127 139 96 46 236 25 298 -45 69 -76 68 -53 65 -956 -3 -754
-4 -812 -21 -849 -42 -92 -106 -129 -227 -130 -75 0 -90 3 -132 28 -48 28 -86
80 -109 148 -7 19 -13 35 -14 37 -1 1 -30 -24 -63 -56 -76 -72 -165 -126 -257
-155 -91 -29 -294 -30 -395 -3 -324 89 -568 364 -645 731 -26 123 -31 341 -11
464 72 428 347 743 717 821 24 5 100 8 169 6 103 -3 138 -8 200 -30z m4289 19
c178 -29 314 -88 388 -168 50 -55 67 -103 60 -177 -9 -103 -72 -193 -153 -220
-48 -16 -94 -8 -251 46 -116 39 -143 45 -216 45 -200 0 -344 -113 -413 -324
-24 -71 -27 -99 -27 -207 -1 -109 3 -135 26 -207 48 -143 138 -250 255 -304
32 -15 74 -23 133 -27 85 -4 91 -3 252 52 188 65 216 66 295 12 95 -64 127
-186 78 -292 -64 -138 -315 -249 -591 -261 -470 -20 -854 292 -961 782 -22
101 -29 286 -15 385 65 440 362 779 756 863 92 20 267 21 384 2z"/>
<path d="M3602 3829 c-32 -13 -77 -43 -113 -76 -171 -159 -211 -488 -89 -738
46 -96 109 -163 188 -202 51 -25 68 -28 157 -28 81 0 109 4 146 21 102 47 190
159 236 298 33 103 38 282 10 386 -43 162 -146 296 -260 338 -77 29 -200 29
-275 1z"/>
<path d="M1418 3831 c-259 -102 -368 -506 -220 -819 36 -76 121 -165 190 -199
51 -25 67 -28 162 -28 95 0 110 3 156 27 108 57 175 142 221 282 24 72 27 96
27 221 0 125 -3 149 -27 221 -49 148 -137 253 -247 295 -67 25 -196 25 -262 0z"/>
</g>
</svg>
