<?xml version="1.0" standalone="no"?>
<!DOCTYPE svg PUBLIC "-//W3C//DTD SVG 20010904//EN"
 "http://www.w3.org/TR/2001/REC-SVG-20010904/DTD/svg10.dtd">
<svg version="1.0" xmlns="http://www.w3.org/2000/svg"
 width="700.000000pt" height="700.000000pt" viewBox="0 0 700.000000 700.000000"
 preserveAspectRatio="xMidYMid meet">
<metadata>
Created by potrace 1.14, written by Peter Selinger 2001-2017
</metadata>
<g transform="translate(0.000000,700.000000) scale(0.100000,-0.100000)"
fill="#000000" stroke="none">
<path d="M2187 5634 c-1 -1 -27 -5 -57 -8 -30 -3 -65 -8 -76 -10 -12 -2 -39
-7 -60 -10 -194 -31 -495 -156 -692 -288 -150 -100 -216 -155 -358 -293 -73
-71 -109 -111 -194 -211 -144 -169 -339 -498 -440 -739 -23 -55 -45 -109 -50
-120 -11 -25 -72 -203 -93 -270 -25 -81 -74 -282 -96 -395 -20 -103 -23 -123
-36 -225 -3 -27 -8 -63 -10 -80 -19 -151 -27 -541 -13 -630 40 -250 151 -468
328 -646 165 -166 337 -262 577 -321 l88 -22 2455 -3 c1454 -1 2481 2 2520 8
269 38 487 145 676 333 163 162 268 356 321 591 25 114 24 478 -2 690 -10 78
-16 120 -20 145 -2 14 -7 45 -10 70 -4 25 -10 63 -15 85 -5 22 -11 55 -15 73
-16 95 -88 362 -115 427 -4 11 -20 56 -35 100 -41 120 -137 335 -211 470 -137
250 -298 469 -487 658 -94 95 -150 143 -287 250 -44 34 -187 121 -270 165
-150 78 -295 132 -450 166 -164 37 -220 40 -610 40 -365 -1 -448 -8 -610 -51
-30 -8 -63 -16 -73 -18 -31 -7 -190 -67 -229 -86 -31 -16 -42 -17 -65 -7 -15
6 -30 12 -33 13 -3 1 -17 7 -31 13 -61 25 -199 71 -263 87 -76 18 -79 19 -146
30 -25 4 -54 10 -65 12 -19 5 -743 12 -748 7z"/>
</g>
</svg>
