<?xml version="1.0" standalone="no"?>
<!DOCTYPE svg PUBLIC "-//W3C//DTD SVG 20010904//EN"
 "http://www.w3.org/TR/2001/REC-SVG-20010904/DTD/svg10.dtd">
<svg version="1.0" xmlns="http://www.w3.org/2000/svg"
 width="920.000000pt" height="920.000000pt" viewBox="0 0 920.000000 920.000000"
 preserveAspectRatio="xMidYMid meet">
<metadata>
Created by potrace 1.14, written by Peter Selinger 2001-2017
</metadata>
<g transform="translate(0.000000,920.000000) scale(0.100000,-0.100000)"
fill="#000000" stroke="none">
<path d="M3880 9107 c0 -14 49 -74 171 -208 201 -222 269 -357 269 -531 0
-104 -20 -180 -80 -303 -66 -134 -157 -253 -319 -415 -151 -150 -234 -221
-491 -421 -220 -172 -304 -249 -384 -356 -252 -336 -219 -645 103 -963 228
-225 616 -441 1074 -600 134 -46 141 -31 15 33 -227 112 -389 270 -484 470
-62 131 -76 246 -49 400 19 109 35 158 95 285 106 223 191 332 515 662 326
332 446 491 533 707 49 123 65 210 59 328 -9 192 -79 339 -236 496 -168 168
-448 329 -705 408 -80 25 -86 25 -86 8z"/>
<path d="M4940 7852 c0 -5 56 -65 125 -133 102 -103 130 -137 157 -194 54
-116 43 -213 -43 -388 -85 -171 -197 -308 -504 -612 -245 -243 -294 -302 -376
-460 l-51 -99 4 -125 c3 -125 3 -127 46 -215 74 -150 230 -293 452 -413 158
-86 471 -206 505 -193 22 9 23 8 -55 35 -237 83 -343 338 -265 641 60 234 124
360 379 754 121 186 192 325 244 479 32 96 36 119 40 243 4 121 2 146 -18 210
-30 99 -77 173 -159 251 -104 98 -245 171 -407 212 -72 17 -74 18 -74 7z"/>
<path d="M5174 6062 c-13 -8 -74 -138 -74 -158 0 -18 16 -21 235 -34 221 -14
513 -42 670 -64 61 -9 144 -21 185 -27 507 -73 948 -204 1105 -329 49 -38 85
-95 85 -133 0 -168 -414 -336 -1105 -447 -214 -34 -576 -79 -730 -90 -82 -6
-186 -15 -230 -20 -44 -5 -136 -12 -205 -15 -69 -3 -181 -10 -250 -15 -226
-16 -778 -21 -1185 -10 -764 21 -1499 90 -2004 191 -461 91 -783 219 -850 338
-25 46 -27 81 -5 128 65 136 488 287 1069 382 335 55 774 107 991 118 145 7
172 18 123 50 -13 9 -49 42 -80 75 l-56 58 -69 -9 c-38 -5 -116 -12 -174 -16
-595 -37 -1291 -149 -1690 -271 -187 -58 -235 -76 -333 -125 -138 -69 -188
-110 -223 -184 -21 -45 -24 -64 -24 -185 0 -153 30 -540 60 -770 100 -767 338
-1531 677 -2180 42 -80 83 -155 91 -168 16 -25 20 -24 -173 -98 -153 -59 -400
-187 -499 -258 -155 -112 -260 -228 -311 -346 -16 -35 -20 -67 -20 -155 0
-109 1 -113 39 -191 75 -153 274 -321 546 -458 187 -95 514 -218 720 -270 480
-122 648 -156 1100 -220 577 -81 819 -97 1557 -98 508 0 628 2 878 21 789 58
1372 153 1931 317 835 243 1290 599 1234 964 -26 162 -159 327 -379 469 -139
89 -436 226 -618 286 -29 9 -53 20 -53 24 0 3 21 42 46 86 25 44 54 98 65 120
l18 40 168 0 c132 1 192 6 280 23 392 78 759 288 990 565 140 168 218 302 277
478 166 497 -45 972 -517 1165 -137 56 -227 75 -377 81 -74 3 -141 10 -148 16
-8 6 -11 21 -7 36 13 62 35 389 35 527 0 148 0 151 -29 195 -40 64 -90 102
-216 163 -138 68 -277 116 -475 166 -279 69 -713 147 -950 170 -52 5 -156 16
-230 24 -217 24 -452 45 -635 56 -93 6 -186 13 -205 15 -19 2 -40 1 -46 -3z
m-4127 -1536 c213 -66 457 -116 569 -116 37 0 66 -5 72 -12 5 -7 15 -62 22
-123 108 -1009 234 -1599 386 -1806 l38 -52 -99 6 c-190 11 -345 86 -499 242
-279 282 -479 833 -555 1530 -29 266 -35 355 -22 355 5 0 45 -11 88 -24z
m7032 -340 c290 -101 463 -363 410 -618 -13 -63 -74 -197 -120 -265 -140 -205
-399 -372 -694 -448 -55 -14 -126 -29 -159 -32 -58 -6 -58 -6 -51 18 4 13 13
35 20 49 79 157 218 639 295 1020 40 198 61 293 68 304 9 16 155 -1 231 -28z
m-6377 -2795 c141 -147 400 -271 768 -370 747 -199 1853 -246 2735 -115 605
90 1016 224 1277 416 38 28 78 64 90 81 l22 31 14 -35 c21 -50 10 -136 -24
-199 -59 -108 -207 -220 -406 -306 -391 -171 -802 -256 -1505 -314 -232 -20
-310 -22 -675 -17 -434 5 -558 14 -969 72 -210 29 -336 53 -519 101 -388 101
-644 217 -786 358 -94 94 -118 140 -118 231 0 66 14 125 31 125 5 0 34 -27 65
-59z"/>
</g>
</svg>
