<?xml version="1.0" standalone="no"?>
<!DOCTYPE svg PUBLIC "-//W3C//DTD SVG 20010904//EN"
 "http://www.w3.org/TR/2001/REC-SVG-20010904/DTD/svg10.dtd">
<svg version="1.0" xmlns="http://www.w3.org/2000/svg"
 width="700.000000pt" height="700.000000pt" viewBox="0 0 700.000000 700.000000"
 preserveAspectRatio="xMidYMid meet">
<metadata>
Created by potrace 1.14, written by Peter Selinger 2001-2017
</metadata>
<g transform="translate(0.000000,700.000000) scale(0.100000,-0.100000)"
fill="#000000" stroke="none">
<path d="M3300 6660 c-114 -15 -192 -47 -300 -120 -130 -88 -217 -119 -586
-210 -267 -66 -285 -70 -317 -56 -47 19 -70 56 -101 158 -30 98 -41 113 -94
128 -60 16 -80 12 -155 -32 -346 -200 -675 -480 -940 -798 -101 -122 -101
-122 -76 -154 39 -50 129 -23 247 73 55 45 67 51 110 51 58 0 135 -35 179 -81
54 -57 66 -99 71 -247 5 -144 -3 -205 -45 -339 -23 -75 -24 -87 -13 -134 16
-67 55 -139 154 -284 45 -66 100 -149 121 -185 82 -136 171 -204 282 -216 201
-21 433 -172 433 -283 0 -112 67 -189 295 -339 88 -58 203 -141 255 -185 118
-98 192 -140 295 -167 109 -29 162 -63 317 -206 73 -68 156 -135 183 -150 28
-15 95 -59 150 -97 55 -39 102 -72 103 -73 2 -2 -23 -38 -56 -81 -81 -107
-147 -211 -184 -289 -27 -57 -30 -73 -26 -128 8 -99 89 -242 210 -371 50 -54
82 -76 172 -122 123 -64 190 -118 217 -178 26 -56 26 -245 0 -397 -35 -202
-91 -348 -170 -443 -71 -85 -149 -276 -168 -411 -5 -36 -2 -43 23 -63 22 -18
38 -22 66 -18 86 12 170 73 443 326 223 208 222 206 355 290 254 161 596 442
668 551 43 64 71 139 97 262 22 102 73 206 131 268 27 29 100 83 171 128 135
83 273 205 273 239 0 30 -18 41 -116 69 -152 44 -262 93 -288 128 -13 17 -58
101 -99 187 -106 222 -160 295 -255 343 -70 35 -110 44 -297 66 -102 12 -178
26 -192 35 -12 8 -40 41 -60 72 -21 32 -49 63 -63 70 -62 31 -170 5 -427 -104
-198 -84 -226 -104 -270 -200 l-35 -75 -36 7 c-100 18 -285 111 -356 179 -69
64 -44 117 103 216 48 31 93 65 101 75 22 27 -7 41 -102 50 -45 4 -99 14 -120
22 -35 14 -46 14 -123 -2 -135 -29 -199 -8 -249 78 -36 62 -39 93 -31 296 l7
186 37 36 c44 43 111 70 255 99 203 42 258 11 277 -156 11 -99 33 -152 72
-174 23 -13 28 -13 41 0 18 18 20 43 10 181 -5 76 -3 116 6 145 7 21 67 125
133 229 66 105 162 258 214 342 52 84 114 170 138 192 58 54 94 59 214 32 83
-18 124 -21 289 -19 227 2 219 -3 201 110 -17 113 -8 218 24 266 49 76 138 88
314 46 40 -10 76 -15 79 -11 13 13 -15 52 -112 157 -53 58 -117 136 -141 173
-45 68 -84 97 -131 97 -45 0 -121 32 -156 66 -20 19 -53 68 -72 107 -108 215
-275 377 -392 377 -49 0 -56 -29 -37 -157 28 -191 15 -271 -58 -345 -73 -75
-148 -98 -318 -98 -126 0 -190 14 -241 54 -62 46 -83 89 -82 161 2 124 98 247
255 325 167 84 258 158 274 223 19 76 -66 109 -389 152 -104 14 -230 36 -280
49 -104 27 -226 37 -306 26z"/>
</g>
</svg>
